<svg xmlns="http://www.w3.org/2000/svg" viewBox="0 0 800 450">
  <defs>
    <linearGradient id="bgGrad" x1="0%" y1="0%" x2="100%" y2="100%">
      <stop offset="0%" style="stop-color:#0f172a"/>
      <stop offset="100%" style="stop-color:#1e293b"/>
    </linearGradient>
    <linearGradient id="blueGrad" x1="0%" y1="0%" x2="0%" y2="100%">
      <stop offset="0%" style="stop-color:#3b82f6"/>
      <stop offset="100%" style="stop-color:#1d4ed8"/>
    </linearGradient>
    <linearGradient id="greenGrad" x1="0%" y1="0%" x2="0%" y2="100%">
      <stop offset="0%" style="stop-color:#22c55e"/>
      <stop offset="100%" style="stop-color:#16a34a"/>
    </linearGradient>
    <linearGradient id="purpleGrad" x1="0%" y1="0%" x2="0%" y2="100%">
      <stop offset="0%" style="stop-color:#a855f7"/>
      <stop offset="100%" style="stop-color:#7c3aed"/>
    </linearGradient>
    <linearGradient id="orangeGrad" x1="0%" y1="0%" x2="0%" y2="100%">
      <stop offset="0%" style="stop-color:#f97316"/>
      <stop offset="100%" style="stop-color:#ea580c"/>
    </linearGradient>
  </defs>

  <!-- Background -->
  <rect width="800" height="450" fill="url(#bgGrad)"/>

  <!-- Title -->
  <text x="400" y="35" text-anchor="middle" fill="#f8fafc" font-family="Arial, sans-serif" font-size="20" font-weight="bold">JUMEAU NUMÉRIQUE DE LA TERRE</text>
  <text x="400" y="55" text-anchor="middle" fill="#94a3b8" font-family="Arial, sans-serif" font-size="12">Simuler notre planète pour prédire l'avenir</text>

  <!-- Globe schematic -->
  <circle cx="400" cy="155" r="60" fill="none" stroke="#3b82f6" stroke-width="2" opacity="0.3"/>
  <ellipse cx="400" cy="155" rx="60" ry="20" fill="none" stroke="#3b82f6" stroke-width="1" opacity="0.5"/>
  <ellipse cx="400" cy="155" rx="60" ry="40" fill="none" stroke="#3b82f6" stroke-width="1" opacity="0.5" transform="rotate(60, 400, 155)"/>
  <ellipse cx="400" cy="155" rx="60" ry="40" fill="none" stroke="#3b82f6" stroke-width="1" opacity="0.5" transform="rotate(-60, 400, 155)"/>

  <!-- Digital grid overlay -->
  <g opacity="0.4">
    <line x1="355" y1="115" x2="445" y2="195" stroke="#22c55e" stroke-width="0.5"/>
    <line x1="355" y1="195" x2="445" y2="115" stroke="#22c55e" stroke-width="0.5"/>
    <line x1="340" y1="155" x2="460" y2="155" stroke="#22c55e" stroke-width="0.5"/>
    <line x1="400" y1="95" x2="400" y2="215" stroke="#22c55e" stroke-width="0.5"/>
  </g>

  <!-- Data points on globe -->
  <circle cx="375" cy="135" r="3" fill="#f97316"/>
  <circle cx="420" cy="145" r="3" fill="#22c55e"/>
  <circle cx="390" cy="175" r="3" fill="#a855f7"/>
  <circle cx="430" cy="165" r="3" fill="#3b82f6"/>

  <!-- Two main projects boxes -->
  <!-- Destination Earth -->
  <rect x="50" y="85" width="170" height="140" rx="8" fill="#1e293b" stroke="#3b82f6" stroke-width="2"/>
  <rect x="50" y="85" width="170" height="30" rx="8" fill="url(#blueGrad)"/>
  <rect x="50" y="105" width="170" height="10" fill="url(#blueGrad)"/>
  <text x="135" y="105" text-anchor="middle" fill="#ffffff" font-family="Arial, sans-serif" font-size="12" font-weight="bold">🇪🇺 DESTINATION EARTH</text>

  <text x="60" y="140" fill="#94a3b8" font-family="Arial, sans-serif" font-size="10">Budget :</text>
  <text x="170" y="140" text-anchor="end" fill="#22c55e" font-family="Arial, sans-serif" font-size="14" font-weight="bold">1 Md €</text>

  <text x="60" y="160" fill="#94a3b8" font-family="Arial, sans-serif" font-size="10">Utilisateurs :</text>
  <text x="170" y="160" text-anchor="end" fill="#f8fafc" font-family="Arial, sans-serif" font-size="14" font-weight="bold">3 500+</text>

  <text x="60" y="180" fill="#94a3b8" font-family="Arial, sans-serif" font-size="10">Résolution :</text>
  <text x="170" y="180" text-anchor="end" fill="#f8fafc" font-family="Arial, sans-serif" font-size="14" font-weight="bold">2 km</text>

  <text x="60" y="200" fill="#94a3b8" font-family="Arial, sans-serif" font-size="10">Lancement :</text>
  <text x="170" y="200" text-anchor="end" fill="#f8fafc" font-family="Arial, sans-serif" font-size="14" font-weight="bold">Juin 2024</text>

  <!-- Earth-2 Nvidia -->
  <rect x="580" y="85" width="170" height="140" rx="8" fill="#1e293b" stroke="#22c55e" stroke-width="2"/>
  <rect x="580" y="85" width="170" height="30" rx="8" fill="url(#greenGrad)"/>
  <rect x="580" y="105" width="170" height="10" fill="url(#greenGrad)"/>
  <text x="665" y="105" text-anchor="middle" fill="#ffffff" font-family="Arial, sans-serif" font-size="12" font-weight="bold">🖥️ EARTH-2 NVIDIA</text>

  <text x="590" y="140" fill="#94a3b8" font-family="Arial, sans-serif" font-size="10">Accélération :</text>
  <text x="700" y="140" text-anchor="end" fill="#f97316" font-family="Arial, sans-serif" font-size="14" font-weight="bold">1000x</text>

  <text x="590" y="160" fill="#94a3b8" font-family="Arial, sans-serif" font-size="10">Résolution :</text>
  <text x="700" y="160" text-anchor="end" fill="#f8fafc" font-family="Arial, sans-serif" font-size="14" font-weight="bold">2 km</text>

  <text x="590" y="180" fill="#94a3b8" font-family="Arial, sans-serif" font-size="10">Technologie :</text>
  <text x="700" y="180" text-anchor="end" fill="#f8fafc" font-family="Arial, sans-serif" font-size="11" font-weight="bold">GPU + IA</text>

  <text x="590" y="200" fill="#94a3b8" font-family="Arial, sans-serif" font-size="10">Réduction coût :</text>
  <text x="700" y="200" text-anchor="end" fill="#22c55e" font-family="Arial, sans-serif" font-size="14" font-weight="bold">÷1000</text>

  <!-- Chaos theory section -->
  <rect x="50" y="250" width="320" height="180" rx="8" fill="#1e293b" stroke="#a855f7" stroke-width="2"/>
  <text x="210" y="275" text-anchor="middle" fill="#a855f7" font-family="Arial, sans-serif" font-size="14" font-weight="bold">🦋 THÉORIE DU CHAOS</text>

  <!-- Butterfly effect visualization -->
  <g transform="translate(80, 290)">
    <!-- Starting point -->
    <circle cx="0" cy="40" r="4" fill="#22c55e"/>
    <text x="10" y="45" fill="#94a3b8" font-family="Arial, sans-serif" font-size="9">Conditions initiales</text>

    <!-- Diverging paths -->
    <path d="M 4 40 Q 60 30 120 10" stroke="#22c55e" stroke-width="2" fill="none"/>
    <path d="M 4 40 Q 60 50 120 70" stroke="#ef4444" stroke-width="2" fill="none"/>

    <!-- End points -->
    <circle cx="120" cy="10" r="4" fill="#22c55e"/>
    <circle cx="120" cy="70" r="4" fill="#ef4444"/>

    <text x="130" y="15" fill="#22c55e" font-family="Arial, sans-serif" font-size="9">Scénario A</text>
    <text x="130" y="75" fill="#ef4444" font-family="Arial, sans-serif" font-size="9">Scénario B</text>

    <!-- Time arrow -->
    <line x1="0" y1="100" x2="200" y2="100" stroke="#64748b" stroke-width="1"/>
    <polygon points="200,100 195,95 195,105" fill="#64748b"/>
    <text x="100" y="115" text-anchor="middle" fill="#64748b" font-family="Arial, sans-serif" font-size="9">Temps →</text>
  </g>

  <!-- Key insight -->
  <rect x="60" y="395" width="300" height="25" rx="4" fill="#7c3aed" opacity="0.3"/>
  <text x="210" y="412" text-anchor="middle" fill="#f8fafc" font-family="Arial, sans-serif" font-size="11">Prévision météo fiable : max 2 semaines</text>

  <!-- Challenges section -->
  <rect x="430" y="250" width="320" height="180" rx="8" fill="#1e293b" stroke="#f97316" stroke-width="2"/>
  <text x="590" y="275" text-anchor="middle" fill="#f97316" font-family="Arial, sans-serif" font-size="14" font-weight="bold">⚠️ LES DÉFIS</text>

  <!-- Challenge items -->
  <g transform="translate(450, 295)">
    <!-- Data volume -->
    <rect x="0" y="0" width="130" height="50" rx="4" fill="#0f172a"/>
    <text x="65" y="20" text-anchor="middle" fill="#3b82f6" font-family="Arial, sans-serif" font-size="20" font-weight="bold">1 Po</text>
    <text x="65" y="38" text-anchor="middle" fill="#94a3b8" font-family="Arial, sans-serif" font-size="9">données/simulation</text>

    <!-- Variables -->
    <rect x="145" y="0" width="130" height="50" rx="4" fill="#0f172a"/>
    <text x="210" y="20" text-anchor="middle" fill="#22c55e" font-family="Arial, sans-serif" font-size="20" font-weight="bold">10⁶+</text>
    <text x="210" y="38" text-anchor="middle" fill="#94a3b8" font-family="Arial, sans-serif" font-size="9">variables couplées</text>

    <!-- Resolution -->
    <rect x="0" y="60" width="130" height="50" rx="4" fill="#0f172a"/>
    <text x="65" y="80" text-anchor="middle" fill="#a855f7" font-family="Arial, sans-serif" font-size="20" font-weight="bold">2 km</text>
    <text x="65" y="98" text-anchor="middle" fill="#94a3b8" font-family="Arial, sans-serif" font-size="9">résolution actuelle</text>

    <!-- Human factor -->
    <rect x="145" y="60" width="130" height="50" rx="4" fill="#0f172a"/>
    <text x="210" y="80" text-anchor="middle" fill="#ef4444" font-family="Arial, sans-serif" font-size="20" font-weight="bold">???</text>
    <text x="210" y="98" text-anchor="middle" fill="#94a3b8" font-family="Arial, sans-serif" font-size="9">facteur humain</text>
  </g>

  <!-- Bottom quote -->
  <text x="590" y="420" text-anchor="middle" fill="#64748b" font-family="Arial, sans-serif" font-size="10" font-style="italic">"La vraie inconnue reste l'Homme"</text>

  <!-- Source -->
  <text x="400" y="443" text-anchor="middle" fill="#475569" font-family="Arial, sans-serif" font-size="9">Sources : Commission européenne, Nvidia, ECMWF, MIT | reveildouceur.fr</text>
</svg>